<svg version="1.1" xmlns="http://www.w3.org/2000/svg" xmlns:xlink="http://www.w3.org/1999/xlink" x="0" y="0" width="144"
  height="180" viewBox="0, 0, 144, 180">
  <g id="Layer_2">

    <path d="M1.152,0.5 L143.848,0.5 L143.848,180.5 L1.152,180.5 L1.152,0.5 z" fill="#00CBFF" stroke="#000000"
      stroke-width="2" />
    <path d="M31.928,31.133 L112.507,31.133 L112.507,148.867 L31.928,148.867 L31.928,31.133 z" fill="#FFFFFF" />

    <path
      d="M84.337,37.114 C83.325,32.004 78.987,24.997 75.432,21.767 C73.26,19.794 72.826,19.574 69.785,21.986 C67.97,23.426 61.966,28.783 61.314,37.114 C60.663,45.445 68.699,56.627 71.305,56.407 C73.912,56.188 85.423,42.595 84.337,37.114 z"
      fill="#FF0000" stroke="#000000" stroke-width="2" />
    <path d="M32.21,0.5 L32.21,180.281" fill-opacity="0" stroke="#000000" stroke-width="2" />
    <path d="M112.572,0.5 L112.572,180.281" fill-opacity="0" stroke="#000000" stroke-width="2" />
    <path d="M1.152,149.148 L144.283,149.148" fill-opacity="0" stroke="#000000" stroke-width="2" />
    <path d="M0.5,31.633 L45.676,31.633" fill-opacity="0" stroke="#000000" stroke-width="2" />
    <path d="M98.387,31.633 L144.5,31.633" fill-opacity="0" stroke="#000000" stroke-width="2" />
    <path d="M72.391,72.632 L72.391,106.176" fill-opacity="0" stroke="#000000" stroke-width="2" />
    <path
      d="M71.088,109.245 C73.613,102.079 80.4,82.484 99.948,79.949 C116.849,77.757 112.106,81.978 111.486,82.278 C109.79,83.1 99.269,91.254 95.631,109.684 C92.127,127.437 89.903,133.869 86.509,138.624 C82.648,144.034 77.224,148.942 72.663,148.942 C68.102,148.942 62.835,131.828 63.269,127.881 C63.704,123.935 69.521,113.695 71.088,109.245 z"
      fill="#00FF00" stroke="#000000" stroke-width="2" />
    <path
      d="M71.74,146.956 C74.395,139.584 75.867,131.608 74.998,123.935 C74.129,116.261 72.954,106.453 62.075,92.829 C51.351,79.401 37.301,78.51 35.251,78.77 C33.001,79.056 31.993,80.305 33.948,81.84 C35.903,83.375 44.896,89.765 48.704,103.655 C52.572,117.769 54.791,129.839 56.441,133.39 C59.02,138.939 64.398,146.529 70.559,148.394 C72.731,149.052 70.871,149.367 71.74,146.956 z"
      fill="#00FF00" stroke="#000000" stroke-width="2" />
    <path
      d="M70.437,71.755 C73.029,72.027 76.301,71.974 76.952,71.097 C77.604,70.22 73.912,53.996 71.523,47.638 C69.133,41.28 64.299,34.511 61.735,32.88 C58.613,30.893 54.799,29.591 51.758,29.591 C48.717,29.591 47.129,30.413 46.532,30.961 C45.952,31.493 45.676,32.29 46.762,33.825 C47.848,35.36 53.129,42.984 54.147,49.83 C55.355,57.956 60.011,70.658 70.437,71.755 z"
      fill="#FF0000" stroke="#000000" stroke-width="2" />
    <path
      d="M92.373,29.879 C96.715,29.754 97.301,30.413 98.238,31.194 C98.986,31.819 99.663,32.639 98.238,34.264 C95.604,37.265 91.464,45.418 89.699,55.078 C87.812,65.409 80.862,71.316 76.084,71.535 C71.305,71.755 72.609,72.193 71.957,69.562 C71.305,66.931 68.699,55.311 74.346,45.445 C79.993,35.579 84.772,30.098 92.373,29.879 z"
      fill="#FF0000" stroke="#000000" stroke-width="2" />
  </g>
</svg>