<svg version="1.1" xmlns="http://www.w3.org/2000/svg" xmlns:xlink="http://www.w3.org/1999/xlink" x="0" y="0" width="54.621" height="75.6" viewBox="0, 0, 54.621, 75.6">
  <g id="Layer_2">
    <g>
      <path d="M18.995,25.357 C16.595,24.557 13.294,23.793 9.707,24.069 C7.134,24.267 4.788,24.759 3.96,25.035 C3.133,25.311 4.328,22.092 5.615,20.437 C6.903,18.782 25.937,18.874 26.581,18.874 C27.225,18.874 26.995,20.391 25.615,20.851 C24.236,21.311 23.409,21.449 22.581,22.828 C21.753,24.207 20.926,24.483 20.926,24.851 C20.926,25.219 19.546,25.541 18.995,25.357 z" fill="#FFD63C"/>
      <path d="M18.995,25.357 C16.595,24.557 13.294,23.793 9.707,24.069 C7.134,24.267 4.788,24.759 3.96,25.035 C3.133,25.311 4.328,22.092 5.615,20.437 C6.903,18.782 25.937,18.874 26.581,18.874 C27.225,18.874 26.995,20.391 25.615,20.851 C24.236,21.311 23.409,21.449 22.581,22.828 C21.753,24.207 20.926,24.483 20.926,24.851 C20.926,25.219 19.546,25.541 18.995,25.357 z" fill-opacity="0" stroke="#000000" stroke-width="1.5"/>
    </g>
    <g>
      <path d="M2.581,28.069 C1.937,23.564 2.121,19.816 2.397,17.793 C2.673,15.77 3.087,13.311 5.983,12.621 C7.904,12.164 12.144,11.15 16.742,10.69 C21.34,10.23 36.42,19.242 31.179,19.15 C25.937,19.058 26.581,20.345 24.098,20.069 C21.615,19.793 14.741,19.639 11.592,20.161 C7.156,20.897 5.983,22.276 5.064,23.38 C4.144,24.483 3.317,26.782 3.041,27.518 C2.765,28.253 2.719,29.035 2.581,28.069 z" fill="#FFD63C"/>
      <path d="M2.581,28.069 C1.937,23.564 2.121,19.816 2.397,17.793 C2.673,15.77 3.087,13.311 5.983,12.621 C7.904,12.164 12.144,11.15 16.742,10.69 C21.34,10.23 36.42,19.242 31.179,19.15 C25.937,19.058 26.581,20.345 24.098,20.069 C21.615,19.793 14.741,19.639 11.592,20.161 C7.156,20.897 5.983,22.276 5.064,23.38 C4.144,24.483 3.317,26.782 3.041,27.518 C2.765,28.253 2.719,29.035 2.581,28.069 z" fill-opacity="0" stroke="#000000" stroke-width="1.5"/>
    </g>
    <g>
      <path d="M24.411,19.987 C23.38,20.642 20.347,22.639 19.528,23.656 C18.728,24.649 18.838,25.035 19.004,25.311 C19.169,25.587 20.576,27.738 20.963,28.704 C21.349,29.669 22.259,32.828 20.673,37.724 C19.087,42.621 19.018,42.207 18.19,45.035 C17.381,47.8 16.673,52.069 16.673,53.173 C16.673,54.003 16.535,53.587 17.431,54.069 C18.328,54.552 24.023,56.693 25.363,57.518 C26.259,58.069 26.254,57.72 26.673,57.242 C27.156,56.69 27.983,55.38 30.259,52.621 C32.535,49.862 35.431,48.345 36.811,47.449 C38.19,46.552 38.88,21.725 36.121,19.104 C33.363,16.483 25.735,19.145 24.411,19.987 z" fill="#FFFFFF"/>
      <path d="M24.411,19.987 C23.38,20.642 20.347,22.639 19.528,23.656 C18.728,24.649 18.838,25.035 19.004,25.311 C19.169,25.587 20.576,27.738 20.963,28.704 C21.349,29.669 22.259,32.828 20.673,37.724 C19.087,42.621 19.018,42.207 18.19,45.035 C17.381,47.8 16.673,52.069 16.673,53.173 C16.673,54.003 16.535,53.587 17.431,54.069 C18.328,54.552 24.023,56.693 25.363,57.518 C26.259,58.069 26.254,57.72 26.673,57.242 C27.156,56.69 27.983,55.38 30.259,52.621 C32.535,49.862 35.431,48.345 36.811,47.449 C38.19,46.552 38.88,21.725 36.121,19.104 C33.363,16.483 25.735,19.145 24.411,19.987 z" fill-opacity="0" stroke="#000000" stroke-width="1.5"/>
    </g>
    <g>
      <path d="M27.294,19.242 C28.602,19.319 32.121,20.828 33.156,25.518 C34.19,30.207 33.776,33.38 33.569,36 C33.363,38.621 33.087,46.207 33.914,49.38 C34.742,52.552 36.052,54.759 36.673,55.656 C37.294,56.552 37.225,56.69 37.845,55.725 C38.466,54.759 39.776,52.483 41.638,51.173 C43.5,49.862 47.018,47.518 47.707,47.242 C48.397,46.966 45.707,22.207 41.776,19.656 C37.845,17.104 28.397,17.449 26.811,17.587 C25.225,17.725 26.121,19.173 27.294,19.242 z" fill="#FFFFFF"/>
      <path d="M27.294,19.242 C28.602,19.319 32.121,20.828 33.156,25.518 C34.19,30.207 33.776,33.38 33.569,36 C33.363,38.621 33.087,46.207 33.914,49.38 C34.742,52.552 36.052,54.759 36.673,55.656 C37.294,56.552 37.225,56.69 37.845,55.725 C38.466,54.759 39.776,52.483 41.638,51.173 C43.5,49.862 47.018,47.518 47.707,47.242 C48.397,46.966 45.707,22.207 41.776,19.656 C37.845,17.104 28.397,17.449 26.811,17.587 C25.225,17.725 26.121,19.173 27.294,19.242 z" fill-opacity="0" stroke="#000000" stroke-width="1.5"/>
    </g>
    <g>
      <path d="M24.107,19.683 C22.043,18.766 18.397,16.414 17.638,14.345 C16.88,12.276 17.156,8.621 17.845,6.966 C18.706,4.9 19.625,2.982 22.949,2 C25.983,1.104 34.466,0.759 40.466,3.931 C46.466,7.104 48.535,11.173 49.294,13.035 C50.052,14.897 50.052,17.931 49.569,20.897 C49.087,23.862 49.153,30.601 49.363,33.862 C49.707,39.242 51.381,45.097 51.914,46.483 C52.259,47.38 52.328,47.035 51.225,47.725 C50.121,48.414 49.018,49.242 48.121,50.207 C47.275,51.118 46.19,52.414 45.776,53.035 C45.363,53.656 45.431,53.518 45.087,52.966 C44.742,52.414 42.259,46.552 42.811,42 C43.363,37.449 43.845,36.759 43.707,35.173 C43.569,33.587 42.041,28.916 39.638,25.656 C36.742,21.725 32.631,19.656 29.79,19.407 C27.177,19.179 26.121,19.38 25.569,19.518 C25.018,19.656 24.728,19.959 24.107,19.683 z" fill="#FFFFFF"/>
      <path d="M24.107,19.683 C22.043,18.766 18.397,16.414 17.638,14.345 C16.88,12.276 17.156,8.621 17.845,6.966 C18.706,4.9 19.625,2.982 22.949,2 C25.983,1.104 34.466,0.759 40.466,3.931 C46.466,7.104 48.535,11.173 49.294,13.035 C50.052,14.897 50.052,17.931 49.569,20.897 C49.087,23.862 49.153,30.601 49.363,33.862 C49.707,39.242 51.381,45.097 51.914,46.483 C52.259,47.38 52.328,47.035 51.225,47.725 C50.121,48.414 49.018,49.242 48.121,50.207 C47.275,51.118 46.19,52.414 45.776,53.035 C45.363,53.656 45.431,53.518 45.087,52.966 C44.742,52.414 42.259,46.552 42.811,42 C43.363,37.449 43.845,36.759 43.707,35.173 C43.569,33.587 42.041,28.916 39.638,25.656 C36.742,21.725 32.631,19.656 29.79,19.407 C27.177,19.179 26.121,19.38 25.569,19.518 C25.018,19.656 24.728,19.959 24.107,19.683 z" fill-opacity="0" stroke="#000000" stroke-width="1.5"/>
    </g>
    <g>
      <path d="M22.637,10.619 C23.675,9.583 25.678,8.315 27.808,8.512 C29.937,8.709 31.2,9.545 31.79,10.065 C32.381,10.584 31.925,12.422 31.483,12.879 C31.041,13.336 28.569,14.223 27.399,14.153 C26.229,14.082 24.253,13.618 23.581,13.301 C22.909,12.984 22.049,11.205 22.637,10.619 z" fill="#333333"/>
      <path d="M22.637,10.619 C23.675,9.583 25.678,8.315 27.808,8.512 C29.937,8.709 31.2,9.545 31.79,10.065 C32.381,10.584 31.925,12.422 31.483,12.879 C31.041,13.336 28.569,14.223 27.399,14.153 C26.229,14.082 24.253,13.618 23.581,13.301 C22.909,12.984 22.049,11.205 22.637,10.619 z" fill-opacity="0" stroke="#000000" stroke-width="1.5"/>
    </g>
    <path d="M17.156,11.725 C19.363,11.104 21.294,10.966 22.742,10.828" fill-opacity="0" stroke="#000000" stroke-width="1.5"/>
    <path d="M31.983,10.345 C35.225,10.483 38.535,12 41.363,14.966 C44.26,18.004 46.19,25.38 45.5,30" fill-opacity="0" stroke="#000000" stroke-width="1.5"/>
    <g>
      <path d="M49.914,18 C49.5,20.828 47.018,26.207 45.914,29.035 C44.811,31.862 44.121,34.138 43.707,36.414" fill="#FFFFFF"/>
      <path d="M49.914,18 C49.5,20.828 47.018,26.207 45.914,29.035 C44.811,31.862 44.121,34.138 43.707,36.414" fill-opacity="0" stroke="#000000" stroke-width="1.5"/>
    </g>
    <g>
      <path d="M20.949,28.69 C22.742,30.897 24.19,32.276 26.328,33.449 C28.466,34.621 32.19,35.587 33.5,35.656" fill="#FFFFFF"/>
      <path d="M20.949,28.69 C22.742,30.897 24.19,32.276 26.328,33.449 C28.466,34.621 32.19,35.587 33.5,35.656" fill-opacity="0" stroke="#000000" stroke-width="1.5"/>
    </g>
    <g>
      <path d="M23.018,31.035 C23.569,32.897 24.296,39.768 25.018,42.966 C25.983,47.242 27.983,50.759 30.19,52.621" fill="#FFFFFF"/>
      <path d="M23.018,31.035 C23.569,32.897 24.296,39.768 25.018,42.966 C25.983,47.242 27.983,50.759 30.19,52.621" fill-opacity="0" stroke="#000000" stroke-width="1.5"/>
    </g>
    <path d="M1.486,61.786 Q2.9,61.835 4.016,61.859 Q5.131,61.883 5.939,61.883 Q6.836,61.883 7.753,61.859 Q8.671,61.835 9.616,61.786 Q9.624,62.393 9.665,63.027 Q9.705,63.661 9.762,64.3 L9.22,64.348 Q9.156,63.379 8.622,63.035 Q8.089,62.692 6.319,62.692 Q5.866,62.692 4.662,62.716 Q4.42,62.724 4.306,62.724 Q4.29,63.694 4.258,65.1 Q4.226,66.506 4.218,66.927 L4.468,66.927 Q4.945,66.927 5.66,66.939 Q6.375,66.951 6.618,66.951 Q7.79,66.951 8.166,66.733 Q8.541,66.514 8.574,65.924 L9.083,65.973 Q9.026,66.474 8.998,66.902 Q8.97,67.331 8.97,67.694 Q8.97,67.904 9.01,68.6 Q9.026,68.85 9.034,68.979 L8.509,68.996 L8.509,68.931 Q8.509,68.244 8.109,68.001 Q7.709,67.759 6.238,67.759 L4.799,67.759 L4.218,67.759 Q4.218,68.155 4.21,68.854 Q4.201,69.553 4.201,69.86 Q4.201,70.394 4.21,70.972 Q4.218,71.549 4.242,72.325 Q4.646,72.374 5.159,72.398 Q5.672,72.422 6.287,72.422 Q8.315,72.422 8.958,72.03 Q9.6,71.638 9.98,70.523 L10.562,70.717 Q10.319,71.388 10.134,72.034 Q9.948,72.681 9.81,73.319 Q8.541,73.271 7.45,73.247 Q6.359,73.222 5.478,73.222 Q4.274,73.222 1.599,73.311 L1.308,73.319 L1.308,72.794 Q1.365,72.802 1.417,72.806 Q1.47,72.81 1.575,72.81 Q2.65,72.81 2.666,69.788 Q2.674,69.028 2.682,68.6 L2.714,66.393 Q2.722,65.682 2.726,65.011 Q2.731,64.34 2.731,63.556 Q2.731,62.861 2.472,62.595 Q2.213,62.328 1.551,62.328 L1.486,62.328 z" fill="#000000"/>
    <path d="M16.825,63.306 L14.975,68.139 Q15.128,68.139 15.419,68.147 Q16.332,68.171 16.664,68.171 Q17.068,68.171 18.127,68.147 Q18.361,68.139 18.482,68.139 z M16.462,61.786 L17.852,61.786 Q18.902,64.995 19.844,67.646 Q20.785,70.297 21.327,71.63 Q21.65,72.398 21.885,72.576 Q22.119,72.754 22.555,72.754 L22.717,72.754 L22.717,73.319 Q22.087,73.287 21.565,73.271 Q21.044,73.255 20.688,73.255 Q20.236,73.255 19.694,73.271 Q19.153,73.287 18.547,73.319 L18.547,72.754 L18.7,72.754 Q19.274,72.754 19.484,72.62 Q19.694,72.487 19.694,72.131 Q19.694,72.002 19.662,71.844 Q19.63,71.687 19.557,71.469 L18.765,68.996 Q18.458,68.996 17.924,68.987 Q16.955,68.963 16.68,68.963 Q16.13,68.963 15.641,68.967 Q15.152,68.971 14.627,68.987 Q14.053,70.434 13.843,71.097 Q13.633,71.76 13.633,72.042 Q13.633,72.438 13.843,72.596 Q14.053,72.754 14.595,72.754 L14.813,72.754 L14.813,73.319 Q14.223,73.287 13.71,73.271 Q13.197,73.255 12.792,73.255 Q12.469,73.255 11.984,73.271 Q11.499,73.287 10.934,73.319 L10.934,72.762 Q11.507,72.746 11.843,72.531 Q12.178,72.317 12.429,71.816 Q12.881,70.871 14.033,68.03 Q15.185,65.189 16.462,61.786 z" fill="#000000"/>
    <path d="M32.499,62.166 Q32.515,62.764 32.58,63.383 Q32.644,64.001 32.766,64.647 L32.151,64.777 Q31.925,63.629 31.068,63.08 Q30.212,62.53 28.644,62.53 Q26.526,62.53 25.358,63.775 Q24.191,65.019 24.191,67.298 Q24.191,69.747 25.524,71.21 Q26.858,72.673 29.056,72.673 Q29.517,72.673 29.985,72.58 Q30.454,72.487 30.979,72.293 Q31.004,71.671 31.016,71.234 Q31.028,70.798 31.028,70.523 Q31.028,69.141 30.721,68.862 Q30.414,68.583 29.371,68.583 L29.258,68.583 L29.258,68.042 Q29.945,68.074 30.531,68.09 Q31.117,68.107 31.521,68.107 Q32.111,68.107 32.624,68.09 Q33.137,68.074 33.606,68.042 L33.606,68.583 Q32.927,68.583 32.721,68.846 Q32.515,69.109 32.515,70.475 L32.515,71.315 Q32.515,71.937 32.531,72.281 Q32.547,72.624 32.58,72.939 Q32.313,72.996 31.78,73.117 Q29.686,73.586 28.611,73.586 Q25.807,73.586 24.122,71.953 Q22.437,70.321 22.437,67.622 Q22.437,64.922 24.251,63.229 Q26.066,61.536 28.959,61.536 Q29.832,61.536 30.717,61.694 Q31.602,61.851 32.499,62.166 z" fill="#000000"/>
    <path d="M34.835,61.762 Q35.699,61.811 36.148,61.831 Q36.596,61.851 36.871,61.851 Q37.396,61.851 37.902,61.831 Q38.407,61.811 38.908,61.77 L38.908,62.328 L38.657,62.328 Q38.019,62.328 37.792,62.768 Q37.566,63.209 37.566,64.793 L37.566,66.401 L37.59,72.325 Q38.043,72.35 38.451,72.362 Q38.859,72.374 39.223,72.374 Q41.389,72.374 42.015,71.974 Q42.642,71.574 43.013,70.426 L43.595,70.604 Q43.345,71.299 43.151,71.97 Q42.957,72.64 42.811,73.319 Q41.47,73.279 40.342,73.259 Q39.215,73.239 38.229,73.239 Q37.534,73.239 36.677,73.259 Q35.82,73.279 34.657,73.319 L34.657,72.794 Q34.713,72.802 34.766,72.806 Q34.818,72.81 34.923,72.81 Q36.014,72.802 36.023,69.699 Q36.023,68.996 36.031,68.6 L36.047,66.401 Q36.047,66.046 36.055,65.488 Q36.063,64.93 36.063,64.712 Q36.063,63.225 35.825,62.777 Q35.586,62.328 34.899,62.328 L34.835,62.328 z" fill="#000000"/>
    <path d="M44.298,61.786 Q45.713,61.835 46.828,61.859 Q47.943,61.883 48.752,61.883 Q49.649,61.883 50.566,61.859 Q51.483,61.835 52.429,61.786 Q52.437,62.393 52.477,63.027 Q52.518,63.661 52.574,64.3 L52.033,64.348 Q51.968,63.379 51.435,63.035 Q50.901,62.692 49.131,62.692 Q48.679,62.692 47.475,62.716 Q47.232,62.724 47.119,62.724 Q47.103,63.694 47.071,65.1 Q47.038,66.506 47.03,66.927 L47.281,66.927 Q47.757,66.927 48.473,66.939 Q49.188,66.951 49.43,66.951 Q50.602,66.951 50.978,66.733 Q51.354,66.514 51.386,65.924 L51.895,65.973 Q51.839,66.474 51.811,66.902 Q51.782,67.331 51.782,67.694 Q51.782,67.904 51.823,68.6 Q51.839,68.85 51.847,68.979 L51.322,68.996 L51.322,68.931 Q51.322,68.244 50.922,68.001 Q50.521,67.759 49.051,67.759 L47.612,67.759 L47.03,67.759 Q47.03,68.155 47.022,68.854 Q47.014,69.553 47.014,69.86 Q47.014,70.394 47.022,70.972 Q47.03,71.549 47.054,72.325 Q47.458,72.374 47.972,72.398 Q48.485,72.422 49.099,72.422 Q51.128,72.422 51.77,72.03 Q52.413,71.638 52.792,70.523 L53.374,70.717 Q53.132,71.388 52.946,72.034 Q52.76,72.681 52.623,73.319 Q51.354,73.271 50.263,73.247 Q49.172,73.222 48.291,73.222 Q47.087,73.222 44.412,73.311 L44.121,73.319 L44.121,72.794 Q44.177,72.802 44.23,72.806 Q44.282,72.81 44.387,72.81 Q45.462,72.81 45.478,69.788 Q45.486,69.028 45.495,68.6 L45.527,66.393 Q45.535,65.682 45.539,65.011 Q45.543,64.34 45.543,63.556 Q45.543,62.861 45.284,62.595 Q45.026,62.328 44.363,62.328 L44.298,62.328 z" fill="#000000"/>
    <g>
      <path d="M4.742,14.69 C5.181,14.032 6.121,13.862 6.213,13.954 C6.305,14.046 6.397,14.69 5.937,15.058 C5.477,15.426 5.018,15.702 4.742,15.426 C4.466,15.15 4.558,14.966 4.742,14.69 z" fill="#000000"/>
      <path d="M4.742,14.69 C5.181,14.032 6.121,13.862 6.213,13.954 C6.305,14.046 6.397,14.69 5.937,15.058 C5.477,15.426 5.018,15.702 4.742,15.426 C4.466,15.15 4.558,14.966 4.742,14.69 z" fill-opacity="0" stroke="#000000" stroke-width="1.5"/>
    </g>
  </g>
</svg>
