<?xml version="1.0" encoding="UTF-8"?>
<!DOCTYPE svg PUBLIC "-//W3C//DTD SVG 1.1//EN" "http://www.w3.org/Graphics/SVG/1.1/DTD/svg11.dtd">
<svg version="1.1" xmlns="http://www.w3.org/2000/svg" xmlns:xlink="http://www.w3.org/1999/xlink" x="0" y="0" width="68.904" height="75.6" viewBox="0, 0, 68.904, 75.6">
  <g id="Layer_2">
    <g>
      <path d="M23.894,33.008 C20.885,32.005 16.746,31.048 12.25,31.394 C9.023,31.642 6.082,32.259 5.044,32.604 C4.007,32.95 5.506,28.915 7.12,26.84 C8.734,24.765 32.599,24.88 33.406,24.88 C34.213,24.88 33.925,26.782 32.195,27.359 C30.466,27.935 29.428,28.108 28.391,29.838 C27.353,31.567 26.315,31.913 26.315,32.374 C26.315,32.835 24.586,33.239 23.894,33.008 z" fill="#FFD63C"/>
      <path d="M23.894,33.008 C20.885,32.005 16.746,31.048 12.25,31.394 C9.023,31.642 6.082,32.259 5.044,32.604 C4.007,32.95 5.506,28.915 7.12,26.84 C8.734,24.765 32.599,24.88 33.406,24.88 C34.213,24.88 33.925,26.782 32.195,27.359 C30.466,27.935 29.428,28.108 28.391,29.838 C27.353,31.567 26.315,31.913 26.315,32.374 C26.315,32.835 24.586,33.239 23.894,33.008 z" fill-opacity="0" stroke="#000000" stroke-width="3"/>
    </g>
    <g>
      <path d="M3.315,36.409 C2.508,30.76 2.739,26.062 3.085,23.525 C3.43,20.989 3.949,17.905 7.581,17.04 C9.99,16.467 15.305,15.196 21.07,14.619 C26.834,14.043 45.742,25.341 39.17,25.226 C32.599,25.111 33.406,26.725 30.293,26.379 C27.18,26.033 18.562,25.839 14.614,26.494 C9.051,27.416 7.581,29.146 6.428,30.529 C5.275,31.913 4.237,34.795 3.892,35.717 C3.546,36.64 3.488,37.62 3.315,36.409 z" fill="#FFD63C"/>
      <path d="M3.315,36.409 C2.508,30.76 2.739,26.062 3.085,23.525 C3.43,20.989 3.949,17.905 7.581,17.04 C9.99,16.467 15.305,15.196 21.07,14.619 C26.834,14.043 45.742,25.341 39.17,25.226 C32.599,25.111 33.406,26.725 30.293,26.379 C27.18,26.033 18.562,25.839 14.614,26.494 C9.051,27.416 7.581,29.146 6.428,30.529 C5.275,31.913 4.237,34.795 3.892,35.717 C3.546,36.64 3.488,37.62 3.315,36.409 z" fill-opacity="0" stroke="#000000" stroke-width="3"/>
    </g>
    <g>
      <path d="M30.685,26.275 C29.392,27.096 25.59,29.6 24.563,30.875 C23.56,32.12 23.698,32.604 23.906,32.95 C24.113,33.296 25.877,35.994 26.362,37.205 C26.846,38.415 27.987,42.375 25.998,48.515 C24.01,54.654 23.923,54.135 22.886,57.68 C21.871,61.147 20.983,66.5 20.983,67.883 C20.983,68.924 20.81,68.402 21.934,69.007 C23.059,69.613 30.199,72.297 31.878,73.331 C33.002,74.022 32.996,73.585 33.521,72.985 C34.126,72.293 35.164,70.65 38.017,67.192 C40.871,63.733 44.503,61.831 46.232,60.706 C47.961,59.582 48.826,28.454 45.367,25.168 C41.908,21.883 32.345,25.22 30.685,26.275 z" fill="#FFFFFF"/>
      <path d="M30.685,26.275 C29.392,27.096 25.59,29.6 24.563,30.875 C23.56,32.12 23.698,32.604 23.906,32.95 C24.113,33.296 25.877,35.994 26.362,37.205 C26.846,38.415 27.987,42.375 25.998,48.515 C24.01,54.654 23.923,54.135 22.886,57.68 C21.871,61.147 20.983,66.5 20.983,67.883 C20.983,68.924 20.81,68.402 21.934,69.007 C23.059,69.613 30.199,72.297 31.878,73.331 C33.002,74.022 32.996,73.585 33.521,72.985 C34.126,72.293 35.164,70.65 38.017,67.192 C40.871,63.733 44.503,61.831 46.232,60.706 C47.961,59.582 48.826,28.454 45.367,25.168 C41.908,21.883 32.345,25.22 30.685,26.275 z" fill-opacity="0" stroke="#000000" stroke-width="3"/>
    </g>
    <g>
      <path d="M34.299,25.341 C35.939,25.438 40.352,27.33 41.649,33.21 C42.946,39.09 42.427,43.067 42.168,46.353 C41.908,49.639 41.563,59.15 42.6,63.128 C43.638,67.105 45.281,69.872 46.059,70.996 C46.837,72.12 46.751,72.293 47.529,71.083 C48.307,69.872 49.95,67.019 52.285,65.376 C54.619,63.733 59.029,60.793 59.894,60.447 C60.758,60.101 57.386,29.059 52.458,25.86 C47.529,22.661 35.683,23.093 33.694,23.266 C31.705,23.439 32.829,25.255 34.299,25.341 z" fill="#FFFFFF"/>
      <path d="M34.299,25.341 C35.939,25.438 40.352,27.33 41.649,33.21 C42.946,39.09 42.427,43.067 42.168,46.353 C41.908,49.639 41.563,59.15 42.6,63.128 C43.638,67.105 45.281,69.872 46.059,70.996 C46.837,72.12 46.751,72.293 47.529,71.083 C48.307,69.872 49.95,67.019 52.285,65.376 C54.619,63.733 59.029,60.793 59.894,60.447 C60.758,60.101 57.386,29.059 52.458,25.86 C47.529,22.661 35.683,23.093 33.694,23.266 C31.705,23.439 32.829,25.255 34.299,25.341 z" fill-opacity="0" stroke="#000000" stroke-width="3"/>
    </g>
    <g>
      <path d="M30.305,25.895 C27.716,24.744 23.145,21.796 22.194,19.202 C21.243,16.608 21.589,12.025 22.453,9.95 C23.532,7.36 24.685,4.955 28.852,3.724 C32.656,2.6 43.292,2.168 50.815,6.145 C58.337,10.123 60.931,15.225 61.882,17.559 C62.834,19.894 62.834,23.698 62.228,27.416 C61.623,31.135 61.707,39.584 61.969,43.672 C62.401,50.417 64.5,57.757 65.168,59.496 C65.601,60.62 65.687,60.188 64.304,61.052 C62.92,61.917 61.537,62.955 60.413,64.165 C59.352,65.307 57.991,66.932 57.473,67.71 C56.954,68.489 57.04,68.316 56.608,67.624 C56.176,66.932 53.063,59.582 53.755,53.876 C54.446,48.169 55.052,47.304 54.879,45.315 C54.706,43.326 52.789,37.471 49.777,33.383 C46.145,28.454 40.992,25.86 37.429,25.549 C34.153,25.262 32.829,25.514 32.138,25.687 C31.446,25.86 31.083,26.24 30.305,25.895 z" fill="#FFFFFF"/>
      <path d="M30.305,25.895 C27.716,24.744 23.145,21.796 22.194,19.202 C21.243,16.608 21.589,12.025 22.453,9.95 C23.532,7.36 24.685,4.955 28.852,3.724 C32.656,2.6 43.292,2.168 50.815,6.145 C58.337,10.123 60.931,15.225 61.882,17.559 C62.834,19.894 62.834,23.698 62.228,27.416 C61.623,31.135 61.707,39.584 61.969,43.672 C62.401,50.417 64.5,57.757 65.168,59.496 C65.601,60.62 65.687,60.188 64.304,61.052 C62.92,61.917 61.537,62.955 60.413,64.165 C59.352,65.307 57.991,66.932 57.473,67.71 C56.954,68.489 57.04,68.316 56.608,67.624 C56.176,66.932 53.063,59.582 53.755,53.876 C54.446,48.169 55.052,47.304 54.879,45.315 C54.706,43.326 52.789,37.471 49.777,33.383 C46.145,28.454 40.992,25.86 37.429,25.549 C34.153,25.262 32.829,25.514 32.138,25.687 C31.446,25.86 31.083,26.24 30.305,25.895 z" fill-opacity="0" stroke="#000000" stroke-width="3"/>
    </g>
    <g>
      <path d="M28.461,14.53 C29.763,13.232 32.273,11.641 34.944,11.888 C37.614,12.136 39.197,13.184 39.937,13.835 C40.678,14.486 40.106,16.79 39.552,17.363 C38.997,17.936 35.899,19.049 34.431,18.961 C32.964,18.872 30.487,18.29 29.645,17.893 C28.802,17.496 27.724,15.265 28.461,14.53 z" fill="#333333"/>
      <path d="M28.461,14.53 C29.763,13.232 32.273,11.641 34.944,11.888 C37.614,12.136 39.197,13.184 39.937,13.835 C40.678,14.486 40.106,16.79 39.552,17.363 C38.997,17.936 35.899,19.049 34.431,18.961 C32.964,18.872 30.487,18.29 29.645,17.893 C28.802,17.496 27.724,15.265 28.461,14.53 z" fill-opacity="0" stroke="#000000" stroke-width="3"/>
    </g>
    <path d="M21.589,15.916 C24.356,15.138 26.777,14.965 28.592,14.792" fill-opacity="0" stroke="#000000" stroke-width="3"/>
    <path d="M40.179,14.187 C44.243,14.36 48.394,16.262 51.939,19.98 C55.571,23.79 57.991,33.037 57.127,38.83" fill-opacity="0" stroke="#000000" stroke-width="3"/>
    <g>
      <path d="M62.661,23.785 C62.142,27.33 59.029,34.074 57.646,37.62 C56.262,41.165 55.397,44.018 54.879,46.872" fill="#FFFFFF"/>
      <path d="M62.661,23.785 C62.142,27.33 59.029,34.074 57.646,37.62 C56.262,41.165 55.397,44.018 54.879,46.872" fill-opacity="0" stroke="#000000" stroke-width="3"/>
    </g>
    <g>
      <path d="M26.344,37.187 C28.592,39.954 30.408,41.684 33.089,43.154 C35.769,44.623 40.439,45.834 42.081,45.92" fill="#FFFFFF"/>
      <path d="M26.344,37.187 C28.592,39.954 30.408,41.684 33.089,43.154 C35.769,44.623 40.439,45.834 42.081,45.92" fill-opacity="0" stroke="#000000" stroke-width="3"/>
    </g>
    <g>
      <path d="M28.938,40.127 C29.63,42.462 30.54,51.076 31.446,55.086 C32.656,60.447 35.164,64.857 37.931,67.192" fill="#FFFFFF"/>
      <path d="M28.938,40.127 C29.63,42.462 30.54,51.076 31.446,55.086 C32.656,60.447 35.164,64.857 37.931,67.192" fill-opacity="0" stroke="#000000" stroke-width="3"/>
    </g>
    <g>
      <path d="M6.024,19.634 C6.575,18.809 7.754,18.597 7.869,18.712 C7.984,18.827 8.1,19.634 7.523,20.096 C6.947,20.557 6.37,20.903 6.024,20.557 C5.679,20.211 5.794,19.98 6.024,19.634 z" fill="#000000"/>
      <path d="M6.024,19.634 C6.575,18.809 7.754,18.597 7.869,18.712 C7.984,18.827 8.1,19.634 7.523,20.096 C6.947,20.557 6.37,20.903 6.024,20.557 C5.679,20.211 5.794,19.98 6.024,19.634 z" fill-opacity="0" stroke="#000000" stroke-width="3"/>
    </g>
  </g>
</svg>
