<?xml version="1.0" encoding="UTF-8"?>
<!DOCTYPE svg PUBLIC "-//W3C//DTD SVG 1.1//EN" "http://www.w3.org/Graphics/SVG/1.1/DTD/svg11.dtd">
<svg version="1.1" xmlns="http://www.w3.org/2000/svg" xmlns:xlink="http://www.w3.org/1999/xlink" x="0" y="0" width="396" height="522" viewBox="0, 0, 396, 522">
  <g id="Background">
    <rect x="0" y="0" width="396" height="522" fill="#FFFFFF"/>
  </g>
  <g id="Layer_2">
    <g>
      <path d="M134.587,178.898 C117.185,173.098 93.253,167.565 67.253,169.565 C48.594,171 31.587,174.565 25.587,176.565 C19.587,178.565 28.253,155.232 37.587,143.232 C46.92,131.232 184.92,131.898 189.587,131.898 C194.253,131.898 192.587,142.898 182.587,146.232 C172.587,149.565 166.587,150.565 160.587,160.565 C154.587,170.565 148.587,172.565 148.587,175.232 C148.587,177.898 138.587,180.232 134.587,178.898 z" fill="#FFD63C"/>
      <path d="M134.587,178.898 C117.185,173.098 93.253,167.565 67.253,169.565 C48.594,171 31.587,174.565 25.587,176.565 C19.587,178.565 28.253,155.232 37.587,143.232 C46.92,131.232 184.92,131.898 189.587,131.898 C194.253,131.898 192.587,142.898 182.587,146.232 C172.587,149.565 166.587,150.565 160.587,160.565 C154.587,170.565 148.587,172.565 148.587,175.232 C148.587,177.898 138.587,180.232 134.587,178.898 z" fill-opacity="0" stroke="#000000" stroke-width="3"/>
    </g>
    <g>
      <path d="M15.587,198.565 C10.92,165.899 12.253,138.732 14.253,124.065 C16.253,109.398 19.253,91.565 40.253,86.565 C54.182,83.249 84.92,75.898 118.253,72.565 C151.587,69.232 260.92,134.565 222.92,133.898 C184.92,133.232 189.587,142.565 171.587,140.565 C153.587,138.565 103.75,137.447 80.92,141.232 C48.753,146.565 40.253,156.565 33.587,164.565 C26.92,172.565 20.92,189.232 18.92,194.565 C16.92,199.899 16.587,205.565 15.587,198.565 z" fill="#FFD63C"/>
      <path d="M15.587,198.565 C10.92,165.899 12.253,138.732 14.253,124.065 C16.253,109.398 19.253,91.565 40.253,86.565 C54.182,83.249 84.92,75.898 118.253,72.565 C151.587,69.232 260.92,134.565 222.92,133.898 C184.92,133.232 189.587,142.565 171.587,140.565 C153.587,138.565 103.75,137.447 80.92,141.232 C48.753,146.565 40.253,156.565 33.587,164.565 C26.92,172.565 20.92,189.232 18.92,194.565 C16.92,199.899 16.587,205.565 15.587,198.565 z" fill-opacity="0" stroke="#000000" stroke-width="3"/>
    </g>
    <g>
      <path d="M173.853,139.965 C166.378,144.715 144.392,159.193 138.453,166.565 C132.653,173.765 133.453,176.565 134.653,178.565 C135.853,180.565 146.053,196.165 148.853,203.165 C151.653,210.165 158.253,233.065 146.753,268.565 C135.253,304.065 134.753,301.065 128.753,321.565 C122.886,341.611 117.753,372.565 117.753,380.565 C117.753,386.586 116.753,383.565 123.253,387.065 C129.753,390.565 171.043,406.089 180.753,412.065 C187.253,416.065 187.218,413.534 190.253,410.065 C193.753,406.065 199.753,396.565 216.253,376.565 C232.753,356.565 253.753,345.565 263.753,339.065 C273.753,332.565 278.753,152.565 258.753,133.565 C238.753,114.565 183.453,133.865 173.853,139.965 z" fill="#FFFFFF"/>
      <path d="M173.853,139.965 C166.378,144.715 144.392,159.193 138.453,166.565 C132.653,173.765 133.453,176.565 134.653,178.565 C135.853,180.565 146.053,196.165 148.853,203.165 C151.653,210.165 158.253,233.065 146.753,268.565 C135.253,304.065 134.753,301.065 128.753,321.565 C122.886,341.611 117.753,372.565 117.753,380.565 C117.753,386.586 116.753,383.565 123.253,387.065 C129.753,390.565 171.043,406.089 180.753,412.065 C187.253,416.065 187.218,413.534 190.253,410.065 C193.753,406.065 199.753,396.565 216.253,376.565 C232.753,356.565 253.753,345.565 263.753,339.065 C273.753,332.565 278.753,152.565 258.753,133.565 C238.753,114.565 183.453,133.865 173.853,139.965 z" fill-opacity="0" stroke="#000000" stroke-width="3"/>
    </g>
    <g>
      <path d="M194.753,134.565 C204.237,135.123 229.753,146.065 237.253,180.065 C244.753,214.065 241.753,237.065 240.253,256.065 C238.753,275.065 236.753,330.065 242.753,353.065 C248.753,376.065 258.253,392.065 262.753,398.565 C267.253,405.065 266.753,406.065 271.253,399.065 C275.753,392.065 285.253,375.565 298.753,366.065 C312.253,356.565 337.753,339.565 342.753,337.565 C347.753,335.565 328.253,156.065 299.753,137.565 C271.253,119.065 202.753,121.565 191.253,122.565 C179.753,123.565 186.253,134.065 194.753,134.565 z" fill="#FFFFFF"/>
      <path d="M194.753,134.565 C204.237,135.123 229.753,146.065 237.253,180.065 C244.753,214.065 241.753,237.065 240.253,256.065 C238.753,275.065 236.753,330.065 242.753,353.065 C248.753,376.065 258.253,392.065 262.753,398.565 C267.253,405.065 266.753,406.065 271.253,399.065 C275.753,392.065 285.253,375.565 298.753,366.065 C312.253,356.565 337.753,339.565 342.753,337.565 C347.753,335.565 328.253,156.065 299.753,137.565 C271.253,119.065 202.753,121.565 191.253,122.565 C179.753,123.565 186.253,134.065 194.753,134.565 z" fill-opacity="0" stroke="#000000" stroke-width="3"/>
    </g>
    <g>
      <path d="M171.653,137.765 C156.687,131.113 130.253,114.065 124.753,99.065 C119.253,84.065 121.253,57.565 126.253,45.565 C132.494,30.588 139.158,16.684 163.253,9.565 C185.253,3.065 246.753,0.565 290.253,23.565 C333.753,46.565 348.753,76.065 354.253,89.565 C359.753,103.065 359.753,125.065 356.253,146.565 C352.753,168.065 353.238,216.923 354.753,240.565 C357.253,279.565 369.387,322.013 373.253,332.065 C375.753,338.565 376.253,336.065 368.253,341.065 C360.253,346.065 352.253,352.065 345.753,359.065 C339.62,365.67 331.753,375.065 328.753,379.565 C325.753,384.065 326.253,383.065 323.753,379.065 C321.253,375.065 303.253,332.565 307.253,299.565 C311.253,266.565 314.753,261.565 313.753,250.065 C312.753,238.565 301.672,204.705 284.253,181.065 C263.253,152.565 233.453,137.565 212.853,135.765 C193.909,134.11 186.253,135.565 182.253,136.565 C178.253,137.565 176.153,139.765 171.653,137.765 z" fill="#FFFFFF"/>
      <path d="M171.653,137.765 C156.687,131.113 130.253,114.065 124.753,99.065 C119.253,84.065 121.253,57.565 126.253,45.565 C132.494,30.588 139.158,16.684 163.253,9.565 C185.253,3.065 246.753,0.565 290.253,23.565 C333.753,46.565 348.753,76.065 354.253,89.565 C359.753,103.065 359.753,125.065 356.253,146.565 C352.753,168.065 353.238,216.923 354.753,240.565 C357.253,279.565 369.387,322.013 373.253,332.065 C375.753,338.565 376.253,336.065 368.253,341.065 C360.253,346.065 352.253,352.065 345.753,359.065 C339.62,365.67 331.753,375.065 328.753,379.565 C325.753,384.065 326.253,383.065 323.753,379.065 C321.253,375.065 303.253,332.565 307.253,299.565 C311.253,266.565 314.753,261.565 313.753,250.065 C312.753,238.565 301.672,204.705 284.253,181.065 C263.253,152.565 233.453,137.565 212.853,135.765 C193.909,134.11 186.253,135.565 182.253,136.565 C178.253,137.565 176.153,139.765 171.653,137.765 z" fill-opacity="0" stroke="#000000" stroke-width="3"/>
    </g>
    <g>
      <path d="M160.994,72.049 C168.521,64.543 183.038,55.344 198.48,56.774 C213.922,58.205 223.074,64.266 227.355,68.03 C231.637,71.795 228.33,85.12 225.125,88.433 C221.92,91.747 204.001,98.181 195.516,97.67 C187.032,97.159 172.708,93.792 167.837,91.495 C162.967,89.198 156.731,76.3 160.994,72.049 z" fill="#333333"/>
      <path d="M160.994,72.049 C168.521,64.543 183.038,55.344 198.48,56.774 C213.922,58.205 223.074,64.266 227.355,68.03 C231.637,71.795 228.33,85.12 225.125,88.433 C221.92,91.747 204.001,98.181 195.516,97.67 C187.032,97.159 172.708,93.792 167.837,91.495 C162.967,89.198 156.731,76.3 160.994,72.049 z" fill-opacity="0" stroke="#000000" stroke-width="3"/>
    </g>
    <path d="M121.253,80.065 C137.253,75.565 151.253,74.565 161.753,73.565" fill-opacity="0" stroke="#000000" stroke-width="3"/>
    <path d="M228.753,70.065 C252.253,71.065 276.253,82.065 296.753,103.565 C317.758,125.595 331.753,179.065 326.753,212.565" fill-opacity="0" stroke="#000000" stroke-width="3"/>
    <g>
      <path d="M358.753,125.565 C355.753,146.065 337.753,185.065 329.753,205.565 C321.753,226.065 316.753,242.565 313.753,259.065" fill="#FFFFFF"/>
      <path d="M358.753,125.565 C355.753,146.065 337.753,185.065 329.753,205.565 C321.753,226.065 316.753,242.565 313.753,259.065" fill-opacity="0" stroke="#000000" stroke-width="3"/>
    </g>
    <g>
      <path d="M148.753,203.065 C161.753,219.065 172.253,229.065 187.753,237.565 C203.253,246.065 230.253,253.065 239.753,253.565" fill="#FFFFFF"/>
      <path d="M148.753,203.065 C161.753,219.065 172.253,229.065 187.753,237.565 C203.253,246.065 230.253,253.065 239.753,253.565" fill-opacity="0" stroke="#000000" stroke-width="3"/>
    </g>
    <g>
      <path d="M163.753,220.065 C167.753,233.565 173.018,283.379 178.253,306.565 C185.253,337.565 199.753,363.065 215.753,376.565" fill="#FFFFFF"/>
      <path d="M163.753,220.065 C167.753,233.565 173.018,283.379 178.253,306.565 C185.253,337.565 199.753,363.065 215.753,376.565" fill-opacity="0" stroke="#000000" stroke-width="3"/>
    </g>
    <path d="M10.773,433.452 Q21.027,433.803 29.113,433.979 Q37.199,434.155 43.058,434.155 Q49.562,434.155 56.212,433.979 Q62.863,433.803 69.718,433.452 Q69.777,437.846 70.07,442.446 Q70.363,447.046 70.773,451.675 L66.847,452.026 Q66.378,444.995 62.511,442.505 Q58.644,440.014 45.812,440.014 Q42.531,440.014 33.8,440.19 Q32.042,440.249 31.222,440.249 Q31.105,447.28 30.871,457.475 Q30.636,467.671 30.578,470.717 L32.394,470.717 Q35.851,470.717 41.037,470.805 Q46.222,470.893 47.98,470.893 Q56.476,470.893 59.201,469.311 Q61.925,467.729 62.16,463.452 L65.851,463.803 Q65.441,467.436 65.236,470.542 Q65.031,473.647 65.031,476.284 Q65.031,477.807 65.324,482.846 Q65.441,484.663 65.499,485.6 L61.691,485.717 L61.691,485.249 Q61.691,480.268 58.79,478.51 Q55.89,476.753 45.226,476.753 L34.796,476.753 L30.578,476.753 Q30.578,479.624 30.519,484.692 Q30.46,489.76 30.46,491.987 Q30.46,495.854 30.519,500.044 Q30.578,504.233 30.753,509.858 Q33.683,510.21 37.404,510.385 Q41.124,510.561 45.578,510.561 Q60.285,510.561 64.943,507.719 Q69.601,504.878 72.355,496.792 L76.574,498.198 Q74.816,503.061 73.468,507.749 Q72.12,512.436 71.124,517.065 Q61.925,516.714 54.015,516.538 Q46.105,516.362 39.718,516.362 Q30.988,516.362 11.593,517.007 L9.484,517.065 L9.484,513.257 Q9.894,513.315 10.275,513.344 Q10.656,513.374 11.417,513.374 Q19.21,513.374 19.328,491.46 Q19.386,485.952 19.445,482.846 L19.679,466.85 Q19.738,461.694 19.767,456.831 Q19.796,451.967 19.796,446.284 Q19.796,441.245 17.921,439.311 Q16.046,437.378 11.242,437.378 L10.773,437.378 z" fill="#000000"/>
    <path d="M121.984,444.467 L108.566,479.507 Q109.679,479.507 111.788,479.565 Q118.41,479.741 120.812,479.741 Q123.742,479.741 131.417,479.565 Q133.117,479.507 133.995,479.507 z M119.347,433.452 L129.425,433.452 Q137.042,456.714 143.869,475.932 Q150.695,495.151 154.62,504.819 Q156.964,510.385 158.663,511.675 Q160.363,512.964 163.527,512.964 L164.699,512.964 L164.699,517.065 Q160.128,516.831 156.349,516.714 Q152.57,516.596 149.992,516.596 Q146.71,516.596 142.785,516.714 Q138.859,516.831 134.464,517.065 L134.464,512.964 L135.578,512.964 Q139.738,512.964 141.261,511.997 Q142.785,511.03 142.785,508.452 Q142.785,507.514 142.55,506.372 Q142.316,505.229 141.788,503.647 L136.046,485.717 Q133.82,485.717 129.953,485.659 Q122.921,485.483 120.929,485.483 Q116.945,485.483 113.4,485.512 Q109.855,485.542 106.046,485.659 Q101.886,496.147 100.363,500.952 Q98.839,505.757 98.839,507.807 Q98.839,510.678 100.363,511.821 Q101.886,512.964 105.812,512.964 L107.394,512.964 L107.394,517.065 Q103.117,516.831 99.396,516.714 Q95.675,516.596 92.745,516.596 Q90.402,516.596 86.886,516.714 Q83.37,516.831 79.269,517.065 L79.269,513.022 Q83.429,512.905 85.861,511.352 Q88.292,509.8 90.109,506.167 Q93.39,499.311 101.74,478.716 Q110.089,458.12 119.347,433.452 z" fill="#000000"/>
    <path d="M235.617,436.206 Q235.734,440.542 236.203,445.024 Q236.671,449.507 237.55,454.194 L233.097,455.132 Q231.456,446.811 225.245,442.827 Q219.035,438.842 207.667,438.842 Q192.316,438.842 183.849,447.866 Q175.382,456.889 175.382,473.413 Q175.382,491.167 185.05,501.772 Q194.718,512.378 210.656,512.378 Q213.995,512.378 217.394,511.704 Q220.792,511.03 224.601,509.624 Q224.777,505.112 224.865,501.948 Q224.953,498.784 224.953,496.792 Q224.953,486.772 222.726,484.751 Q220.499,482.729 212.941,482.729 L212.12,482.729 L212.12,478.803 Q217.101,479.038 221.349,479.155 Q225.597,479.272 228.527,479.272 Q232.804,479.272 236.525,479.155 Q240.245,479.038 243.644,478.803 L243.644,482.729 Q238.722,482.729 237.228,484.634 Q235.734,486.538 235.734,496.44 L235.734,502.534 Q235.734,507.046 235.851,509.536 Q235.968,512.026 236.203,514.311 Q234.269,514.721 230.402,515.6 Q215.226,518.999 207.433,518.999 Q187.101,518.999 174.884,507.163 Q162.667,495.327 162.667,475.757 Q162.667,456.186 175.822,443.911 Q188.976,431.635 209.953,431.635 Q216.281,431.635 222.697,432.778 Q229.113,433.921 235.617,436.206 z" fill="#000000"/>
    <path d="M252.55,433.276 Q258.82,433.628 262.072,433.774 Q265.324,433.921 267.316,433.921 Q271.124,433.921 274.786,433.774 Q278.449,433.628 282.081,433.335 L282.081,437.378 L280.265,437.378 Q275.636,437.378 273.995,440.571 Q272.355,443.764 272.355,455.249 L272.355,466.909 L272.531,509.858 Q275.812,510.034 278.771,510.122 Q281.73,510.21 284.367,510.21 Q300.07,510.21 304.611,507.309 Q309.152,504.409 311.847,496.089 L316.066,497.378 Q314.249,502.417 312.843,507.28 Q311.437,512.143 310.382,517.065 Q300.656,516.772 292.482,516.626 Q284.308,516.479 277.16,516.479 Q272.12,516.479 265.91,516.626 Q259.699,516.772 251.261,517.065 L251.261,513.257 Q251.671,513.315 252.052,513.344 Q252.433,513.374 253.195,513.374 Q261.105,513.315 261.163,490.815 Q261.163,485.717 261.222,482.846 L261.339,466.909 Q261.339,464.331 261.398,460.288 Q261.456,456.245 261.456,454.663 Q261.456,443.882 259.728,440.63 Q257.999,437.378 253.019,437.378 L252.55,437.378 z" fill="#000000"/>
    <path d="M321.163,433.452 Q331.417,433.803 339.503,433.979 Q347.589,434.155 353.449,434.155 Q359.953,434.155 366.603,433.979 Q373.253,433.803 380.109,433.452 Q380.167,437.846 380.46,442.446 Q380.753,447.046 381.163,451.675 L377.238,452.026 Q376.769,444.995 372.902,442.505 Q369.035,440.014 356.203,440.014 Q352.921,440.014 344.191,440.19 Q342.433,440.249 341.613,440.249 Q341.496,447.28 341.261,457.475 Q341.027,467.671 340.968,470.717 L342.785,470.717 Q346.242,470.717 351.427,470.805 Q356.613,470.893 358.371,470.893 Q366.867,470.893 369.591,469.311 Q372.316,467.729 372.55,463.452 L376.242,463.803 Q375.831,467.436 375.626,470.542 Q375.421,473.647 375.421,476.284 Q375.421,477.807 375.714,482.846 Q375.831,484.663 375.89,485.6 L372.081,485.717 L372.081,485.249 Q372.081,480.268 369.181,478.51 Q366.281,476.753 355.617,476.753 L345.187,476.753 L340.968,476.753 Q340.968,479.624 340.91,484.692 Q340.851,489.76 340.851,491.987 Q340.851,495.854 340.91,500.044 Q340.968,504.233 341.144,509.858 Q344.074,510.21 347.794,510.385 Q351.515,510.561 355.968,510.561 Q370.675,510.561 375.333,507.719 Q379.992,504.878 382.746,496.792 L386.964,498.198 Q385.206,503.061 383.859,507.749 Q382.511,512.436 381.515,517.065 Q372.316,516.714 364.406,516.538 Q356.496,516.362 350.109,516.362 Q341.378,516.362 321.984,517.007 L319.874,517.065 L319.874,513.257 Q320.285,513.315 320.665,513.344 Q321.046,513.374 321.808,513.374 Q329.601,513.374 329.718,491.46 Q329.777,485.952 329.835,482.846 L330.07,466.85 Q330.128,461.694 330.158,456.831 Q330.187,451.967 330.187,446.284 Q330.187,441.245 328.312,439.311 Q326.437,437.378 321.632,437.378 L321.163,437.378 z" fill="#000000"/>
    <g>
      <path d="M31.253,101.565 C34.434,96.793 41.253,95.565 41.92,96.232 C42.587,96.898 43.253,101.565 39.92,104.232 C36.587,106.898 33.253,108.898 31.253,106.898 C29.253,104.898 29.92,103.565 31.253,101.565 z" fill="#000000"/>
      <path d="M31.253,101.565 C34.434,96.793 41.253,95.565 41.92,96.232 C42.587,96.898 43.253,101.565 39.92,104.232 C36.587,106.898 33.253,108.898 31.253,106.898 C29.253,104.898 29.92,103.565 31.253,101.565 z" fill-opacity="0" stroke="#000000" stroke-width="3"/>
    </g>
  </g>
</svg>
