<?xml version="1.0" encoding="UTF-8"?>
<!DOCTYPE svg PUBLIC "-//W3C//DTD SVG 1.1//EN" "http://www.w3.org/Graphics/SVG/1.1/DTD/svg11.dtd">
<svg version="1.1" xmlns="http://www.w3.org/2000/svg" xmlns:xlink="http://www.w3.org/1999/xlink" x="0" y="0" width="396" height="414" viewBox="0, 0, 396, 414">
  <g id="Background">
    <rect x="0" y="0" width="396" height="414" fill="#FFFFFF"/>
  </g>
  <g id="Layer_2">
    <g>
      <path d="M134.587,176.898 C117.185,171.098 93.253,165.565 67.253,167.565 C48.594,169 31.587,172.565 25.587,174.565 C19.587,176.565 28.253,153.232 37.587,141.232 C46.92,129.232 184.92,129.898 189.587,129.898 C194.253,129.898 192.587,140.898 182.587,144.232 C172.587,147.565 166.587,148.565 160.587,158.565 C154.587,168.565 148.587,170.565 148.587,173.232 C148.587,175.898 138.587,178.232 134.587,176.898 z" fill="#FFD63C"/>
      <path d="M134.587,176.898 C117.185,171.098 93.253,165.565 67.253,167.565 C48.594,169 31.587,172.565 25.587,174.565 C19.587,176.565 28.253,153.232 37.587,141.232 C46.92,129.232 184.92,129.898 189.587,129.898 C194.253,129.898 192.587,140.898 182.587,144.232 C172.587,147.565 166.587,148.565 160.587,158.565 C154.587,168.565 148.587,170.565 148.587,173.232 C148.587,175.898 138.587,178.232 134.587,176.898 z" fill-opacity="0" stroke="#000000" stroke-width="3"/>
    </g>
    <g>
      <path d="M15.587,196.565 C10.92,163.899 12.253,136.732 14.253,122.065 C16.253,107.398 19.253,89.565 40.253,84.565 C54.182,81.249 84.92,73.898 118.253,70.565 C151.587,67.232 260.92,132.565 222.92,131.898 C184.92,131.232 189.587,140.565 171.587,138.565 C153.587,136.565 103.75,135.447 80.92,139.232 C48.753,144.565 40.253,154.565 33.587,162.565 C26.92,170.565 20.92,187.232 18.92,192.565 C16.92,197.899 16.587,203.565 15.587,196.565 z" fill="#FFD63C"/>
      <path d="M15.587,196.565 C10.92,163.899 12.253,136.732 14.253,122.065 C16.253,107.398 19.253,89.565 40.253,84.565 C54.182,81.249 84.92,73.898 118.253,70.565 C151.587,67.232 260.92,132.565 222.92,131.898 C184.92,131.232 189.587,140.565 171.587,138.565 C153.587,136.565 103.75,135.447 80.92,139.232 C48.753,144.565 40.253,154.565 33.587,162.565 C26.92,170.565 20.92,187.232 18.92,192.565 C16.92,197.899 16.587,203.565 15.587,196.565 z" fill-opacity="0" stroke="#000000" stroke-width="3"/>
    </g>
    <g>
      <path d="M173.853,137.965 C166.378,142.715 144.392,157.193 138.453,164.565 C132.653,171.765 133.453,174.565 134.653,176.565 C135.853,178.565 146.053,194.165 148.853,201.165 C151.653,208.165 158.253,231.065 146.753,266.565 C135.253,302.065 134.753,299.065 128.753,319.565 C122.886,339.611 117.753,370.565 117.753,378.565 C117.753,384.586 116.753,381.565 123.253,385.065 C129.753,388.565 171.043,404.089 180.753,410.065 C187.253,414.065 187.218,411.534 190.253,408.065 C193.753,404.065 199.753,394.565 216.253,374.565 C232.753,354.565 253.753,343.565 263.753,337.065 C273.753,330.565 278.753,150.565 258.753,131.565 C238.753,112.565 183.453,131.865 173.853,137.965 z" fill="#FFFFFF"/>
      <path d="M173.853,137.965 C166.378,142.715 144.392,157.193 138.453,164.565 C132.653,171.765 133.453,174.565 134.653,176.565 C135.853,178.565 146.053,194.165 148.853,201.165 C151.653,208.165 158.253,231.065 146.753,266.565 C135.253,302.065 134.753,299.065 128.753,319.565 C122.886,339.611 117.753,370.565 117.753,378.565 C117.753,384.586 116.753,381.565 123.253,385.065 C129.753,388.565 171.043,404.089 180.753,410.065 C187.253,414.065 187.218,411.534 190.253,408.065 C193.753,404.065 199.753,394.565 216.253,374.565 C232.753,354.565 253.753,343.565 263.753,337.065 C273.753,330.565 278.753,150.565 258.753,131.565 C238.753,112.565 183.453,131.865 173.853,137.965 z" fill-opacity="0" stroke="#000000" stroke-width="3"/>
    </g>
    <g>
      <path d="M194.753,132.565 C204.237,133.123 229.753,144.065 237.253,178.065 C244.753,212.065 241.753,235.065 240.253,254.065 C238.753,273.065 236.753,328.065 242.753,351.065 C248.753,374.065 258.253,390.065 262.753,396.565 C267.253,403.065 266.753,404.065 271.253,397.065 C275.753,390.065 285.253,373.565 298.753,364.065 C312.253,354.565 337.753,337.565 342.753,335.565 C347.753,333.565 328.253,154.065 299.753,135.565 C271.253,117.065 202.753,119.565 191.253,120.565 C179.753,121.565 186.253,132.065 194.753,132.565 z" fill="#FFFFFF"/>
      <path d="M194.753,132.565 C204.237,133.123 229.753,144.065 237.253,178.065 C244.753,212.065 241.753,235.065 240.253,254.065 C238.753,273.065 236.753,328.065 242.753,351.065 C248.753,374.065 258.253,390.065 262.753,396.565 C267.253,403.065 266.753,404.065 271.253,397.065 C275.753,390.065 285.253,373.565 298.753,364.065 C312.253,354.565 337.753,337.565 342.753,335.565 C347.753,333.565 328.253,154.065 299.753,135.565 C271.253,117.065 202.753,119.565 191.253,120.565 C179.753,121.565 186.253,132.065 194.753,132.565 z" fill-opacity="0" stroke="#000000" stroke-width="3"/>
    </g>
    <g>
      <path d="M171.653,135.765 C156.687,129.113 130.253,112.065 124.753,97.065 C119.253,82.065 121.253,55.565 126.253,43.565 C132.494,28.588 139.158,14.684 163.253,7.565 C185.253,1.065 246.753,-1.435 290.253,21.565 C333.753,44.565 348.753,74.065 354.253,87.565 C359.753,101.065 359.753,123.065 356.253,144.565 C352.753,166.065 353.238,214.923 354.753,238.565 C357.253,277.565 369.387,320.013 373.253,330.065 C375.753,336.565 376.253,334.065 368.253,339.065 C360.253,344.065 352.253,350.065 345.753,357.065 C339.62,363.67 331.753,373.065 328.753,377.565 C325.753,382.065 326.253,381.065 323.753,377.065 C321.253,373.065 303.253,330.565 307.253,297.565 C311.253,264.565 314.753,259.565 313.753,248.065 C312.753,236.565 301.672,202.705 284.253,179.065 C263.253,150.565 233.453,135.565 212.853,133.765 C193.909,132.11 186.253,133.565 182.253,134.565 C178.253,135.565 176.153,137.765 171.653,135.765 z" fill="#FFFFFF"/>
      <path d="M171.653,135.765 C156.687,129.113 130.253,112.065 124.753,97.065 C119.253,82.065 121.253,55.565 126.253,43.565 C132.494,28.588 139.158,14.684 163.253,7.565 C185.253,1.065 246.753,-1.435 290.253,21.565 C333.753,44.565 348.753,74.065 354.253,87.565 C359.753,101.065 359.753,123.065 356.253,144.565 C352.753,166.065 353.238,214.923 354.753,238.565 C357.253,277.565 369.387,320.013 373.253,330.065 C375.753,336.565 376.253,334.065 368.253,339.065 C360.253,344.065 352.253,350.065 345.753,357.065 C339.62,363.67 331.753,373.065 328.753,377.565 C325.753,382.065 326.253,381.065 323.753,377.065 C321.253,373.065 303.253,330.565 307.253,297.565 C311.253,264.565 314.753,259.565 313.753,248.065 C312.753,236.565 301.672,202.705 284.253,179.065 C263.253,150.565 233.453,135.565 212.853,133.765 C193.909,132.11 186.253,133.565 182.253,134.565 C178.253,135.565 176.153,137.765 171.653,135.765 z" fill-opacity="0" stroke="#000000" stroke-width="3"/>
    </g>
    <g>
      <path d="M160.994,70.049 C168.521,62.543 183.038,53.344 198.48,54.774 C213.922,56.205 223.074,62.266 227.355,66.03 C231.637,69.795 228.33,83.12 225.125,86.433 C221.92,89.747 204.001,96.181 195.516,95.67 C187.032,95.159 172.708,91.792 167.837,89.495 C162.967,87.198 156.731,74.3 160.994,70.049 z" fill="#333333"/>
      <path d="M160.994,70.049 C168.521,62.543 183.038,53.344 198.48,54.774 C213.922,56.205 223.074,62.266 227.355,66.03 C231.637,69.795 228.33,83.12 225.125,86.433 C221.92,89.747 204.001,96.181 195.516,95.67 C187.032,95.159 172.708,91.792 167.837,89.495 C162.967,87.198 156.731,74.3 160.994,70.049 z" fill-opacity="0" stroke="#000000" stroke-width="3"/>
    </g>
    <path d="M121.253,78.065 C137.253,73.565 151.253,72.565 161.753,71.565" fill-opacity="0" stroke="#000000" stroke-width="3"/>
    <path d="M228.753,68.065 C252.253,69.065 276.253,80.065 296.753,101.565 C317.758,123.595 331.753,177.065 326.753,210.565" fill-opacity="0" stroke="#000000" stroke-width="3"/>
    <g>
      <path d="M358.753,123.565 C355.753,144.065 337.753,183.065 329.753,203.565 C321.753,224.065 316.753,240.565 313.753,257.065" fill="#FFFFFF"/>
      <path d="M358.753,123.565 C355.753,144.065 337.753,183.065 329.753,203.565 C321.753,224.065 316.753,240.565 313.753,257.065" fill-opacity="0" stroke="#000000" stroke-width="3"/>
    </g>
    <g>
      <path d="M148.753,201.065 C161.753,217.065 172.253,227.065 187.753,235.565 C203.253,244.065 230.253,251.065 239.753,251.565" fill="#FFFFFF"/>
      <path d="M148.753,201.065 C161.753,217.065 172.253,227.065 187.753,235.565 C203.253,244.065 230.253,251.065 239.753,251.565" fill-opacity="0" stroke="#000000" stroke-width="3"/>
    </g>
    <g>
      <path d="M163.753,218.065 C167.753,231.565 173.018,281.379 178.253,304.565 C185.253,335.565 199.753,361.065 215.753,374.565" fill="#FFFFFF"/>
      <path d="M163.753,218.065 C167.753,231.565 173.018,281.379 178.253,304.565 C185.253,335.565 199.753,361.065 215.753,374.565" fill-opacity="0" stroke="#000000" stroke-width="3"/>
    </g>
    <g>
      <path d="M31.253,99.565 C34.434,94.793 41.253,93.565 41.92,94.232 C42.587,94.898 43.253,99.565 39.92,102.232 C36.587,104.898 33.253,106.898 31.253,104.898 C29.253,102.898 29.92,101.565 31.253,99.565 z" fill="#000000"/>
      <path d="M31.253,99.565 C34.434,94.793 41.253,93.565 41.92,94.232 C42.587,94.898 43.253,99.565 39.92,102.232 C36.587,104.898 33.253,106.898 31.253,104.898 C29.253,102.898 29.92,101.565 31.253,99.565 z" fill-opacity="0" stroke="#000000" stroke-width="3"/>
    </g>
  </g>
</svg>
